<svg version="1.1" xmlns="http://www.w3.org/2000/svg" xmlns:xlink="http://www.w3.org/1999/xlink" width="700" height="700" viewBox="494.5,86.5,700,700"><g id="document" fill="#ffffff" fill-rule="nonzero" stroke="#000000" stroke-width="0" stroke-linecap="butt" stroke-linejoin="miter" stroke-miterlimit="10" stroke-dasharray="" stroke-dashoffset="0" font-family="none" font-weight="none" font-size="none" text-anchor="none" style="mix-blend-mode: normal"><rect x="494.5" y="61.78571" transform="scale(1,1.4)" width="700" height="500" id="Shape 1 1" vector-effect="non-scaling-stroke"/></g><g fill="none" fill-rule="nonzero" stroke="none" stroke-width="none" stroke-linecap="round" stroke-linejoin="round" stroke-miterlimit="10" stroke-dasharray="none" stroke-dashoffset="0" font-family="none" font-weight="none" font-size="none" text-anchor="none" style="mix-blend-mode: normal"><g id="stage"><g id="layer1 1"><path d="M1172,436.5c0,180.87326 -146.62674,327.5 -327.5,327.5c-180.87326,0 -327.5,-146.62674 -327.5,-327.5c0,-180.87326 146.62674,-327.5 327.5,-327.5c180.87326,0 327.5,146.62674 327.5,327.5z" id="Path 1" fill="#edfeff" stroke="#00aeff" stroke-width="10" stroke-dasharray=""/><path d="M682,206" id="Path 1" fill="none" stroke="#000000" stroke-width="1" stroke-dasharray=""/><path d="M819.95341,152.39265" id="Path 1" fill="none" stroke="#000000" stroke-width="1" stroke-dasharray=""/><path d="M835,300" id="Path 1" fill="none" stroke="#000000" stroke-width="1" stroke-dasharray=""/><path d="M599,349c0,0 39.29714,-159.97526 264.5,-187.60735" id="Path 1" fill="none" stroke="#c7f5ff" stroke-width="34" stroke-dasharray="3,2"/><path d="M599,349.00001c0,0 39.29714,-159.97526 264.5,-187.60735" id="Path 1" fill="none" stroke="#ffffff" stroke-width="26" stroke-dasharray="3,2"/><path d="M1162.5,436.5c0,175.62655 -142.37345,318 -318,318c-175.62655,0 -318,-142.37345 -318,-318c0,-175.62655 142.37345,-318 318,-318c175.62655,0 318,142.37345 318,318z" id="Path 1" fill-opacity="0" fill="#effbff" stroke="#c7f5ff" stroke-width="10" stroke-dasharray=""/></g></g></g></svg>