<?xml version="1.0" encoding="UTF-8"?>
<svg id="Layer_2" data-name="Layer 2" xmlns="http://www.w3.org/2000/svg" viewBox="0 0 259.08 559.07">
  <defs>
    <style>
      .cls-1 {
        fill: none;
        stroke: #2e140d;
        stroke-width: 23.59px;
      }

      .cls-1, .cls-2, .cls-3 {
        stroke-miterlimit: 10;
      }

      .cls-2 {
        stroke-width: 26px;
      }

      .cls-2, .cls-4, .cls-5, .cls-3 {
        fill: #da4a27;
      }

      .cls-2, .cls-5 {
        stroke: #2d1610;
      }

      .cls-6 {
        fill: #2d1610;
        stroke-width: 0px;
      }

      .cls-4, .cls-5 {
        stroke-linecap: round;
        stroke-linejoin: round;
      }

      .cls-4, .cls-3 {
        stroke: #da4926;
        stroke-width: 42.81px;
      }

      .cls-5 {
        stroke-width: 49px;
      }
    </style>
  </defs>
  <g id="Layer_4" data-name="Layer 4">
    <path class="cls-5" d="m234.58,306.21s-16.71-66.88-47.51-101.03,47.51,101.03,47.51,101.03Z"/>
    <path class="cls-5" d="m24.5,306.21s16.71-66.88,47.51-101.03c30.8-34.15-47.51,101.03-47.51,101.03Z"/>
    <path class="cls-1" d="m84.51,446.43c0-8.55,20.9-15.48,46.69-15.48s46.69,6.93,46.69,15.48"/>
    <path class="cls-1" d="m33.25,159.45c0-17.94,43.85-32.48,97.95-32.48s97.95,14.54,97.95,32.48"/>
    <path class="cls-3" d="m197.16,185.87c.31,11.73.18,24.42-.46,38.17-8.08,173.85-65.5,224.03-65.5,224.03,0,0-57.43-50.18-65.5-224.03-.68-14.71-.78-28.22-.39-40.62"/>
    <path class="cls-2" d="m55.23,183.84C60.12,29.14,131.2,23.37,131.2,23.37c0,0,71.94,5.84,76.04,163.3"/>
    <path class="cls-4" d="m158.75,537.66s-34.01-54.54-29.82-96.31c4.18-41.78,29.82,96.31,29.82,96.31Z"/>
    <path class="cls-4" d="m103.71,537.66s34.01-54.54,29.82-96.31-29.82,96.31-29.82,96.31Z"/>
    <rect class="cls-6" x="115.79" y="0" width="33.61" height="197.61" rx="16.81" ry="16.81"/>
    <rect class="cls-6" x="140.5" y="235.34" width="17.81" height="104.7" rx="8.9" ry="8.9"/>
    <rect class="cls-6" x="106.88" y="235.34" width="17.81" height="104.7" rx="8.9" ry="8.9"/>
    <path class="cls-1" d="m229.15,159.45c0,17.94-43.85,32.48-97.95,32.48s-97.95-14.54-97.95-32.48"/>
    <path class="cls-1" d="m177.89,446.43c0,8.55-20.9,15.48-46.69,15.48s-46.69-6.93-46.69-15.48"/>
  </g>
</svg>