<?xml version="1.0" encoding="UTF-8"?>
<svg id="Layer_2" data-name="Layer 2" xmlns="http://www.w3.org/2000/svg" viewBox="0 0 52.08 42.67">
  <defs>
    <style>
      .cls-1 {
        fill: #51803a;
      }

      .cls-1, .cls-2, .cls-3, .cls-4, .cls-5 {
        stroke-width: 0px;
      }

      .cls-2 {
        fill: #80c351;
      }

      .cls-3 {
        fill: #fff;
      }

      .cls-4 {
        fill: #7a6f64;
      }

      .cls-5 {
        fill: #626c2e;
      }
    </style>
  </defs>
  <g id="Layer_3" data-name="Layer 3">
    <circle class="cls-5" cx="26.72" cy="16.24" r="13.87"/>
    <circle class="cls-2" cx="26.28" cy="15.14" r="13.87"/>
    <circle class="cls-2" cx="14.36" cy="17.53" r="9.81"/>
    <circle class="cls-3" cx="26.28" cy="37.3" r="5.38"/>
    <circle class="cls-2" cx="39.32" cy="17.53" r="9.81"/>
    <rect class="cls-4" x="14.17" y="25.11" width="24.22" height="6.47" rx="3.24" ry="3.24" transform="translate(54.63 2.07) rotate(90)"/>
    <path class="cls-1" d="m29.32,28.4c-5.8,2.69-18.82,6.47-28.81-7.28-.98-1.35-.49-3.27,1.01-3.99,13.7-6.51,24.28,2.3,28.65,7.01,1.24,1.34.81,3.49-.85,4.26Z"/>
    <path class="cls-1" d="m36.81.42c-5.41,3.41-15.65,12.29-9.52,28.15.6,1.56,2.48,2.19,3.9,1.31,12.9-7.98,11.24-21.65,9.66-27.86-.45-1.77-2.5-2.57-4.04-1.6Z"/>
    <path class="cls-1" d="m22.03,29.86c-5.41-3.41-15.65-12.29-9.52-28.15.6-1.56,2.48-2.19,3.9-1.31,12.9,7.98,11.24,21.65,9.66,27.86-.45,1.77-2.5,2.57-4.04,1.6Z"/>
    <path class="cls-1" d="m22.76,28.19c5.8,2.69,18.82,6.47,28.81-7.28.98-1.35.49-3.27-1.01-3.99-13.7-6.51-24.28,2.3-28.65,7.01-1.24,1.34-.81,3.49.85,4.26Z"/>
    <path class="cls-1" d="m13.47,30.45s8,2.14,24.14,0c.87-5.15-24.22-6.03-24.14,0Z"/>
  </g>
</svg>